<?xml version="1.0" standalone="no"?>
<!DOCTYPE svg PUBLIC "-//W3C//DTD SVG 20010904//EN"
 "http://www.w3.org/TR/2001/REC-SVG-20010904/DTD/svg10.dtd">
<svg version="1.0" xmlns="http://www.w3.org/2000/svg"
 width="512.000000pt" height="512.000000pt" viewBox="0 0 512.000000 512.000000"
 preserveAspectRatio="xMidYMid meet">

<g transform="translate(0.000000,512.000000) scale(0.100000,-0.100000)"
fill="#000000" stroke="none">
<path d="M2453 3678 c-49 -79 -113 -186 -143 -238 -137 -243 -289 -475 -318
-484 -9 -3 -51 -5 -92 -4 -70 3 -78 1 -123 -31 -78 -54 -76 -59 -101 240 -18
202 -28 230 -106 276 -68 41 -106 42 -179 3 -130 -70 -360 -313 -482 -513
l-34 -55 -435 5 c-386 4 -433 3 -415 -10 11 -8 114 -49 230 -92 411 -151 556
-214 582 -250 10 -15 42 -54 70 -87 29 -33 53 -66 53 -72 0 -7 -13 -30 -30
-52 -47 -62 -42 -87 47 -222 115 -174 139 -188 267 -153 42 12 90 21 106 21
l30 0 -29 -57 c-30 -61 -120 -213 -265 -451 -48 -79 -85 -146 -83 -149 9 -8
47 6 737 274 360 140 693 268 740 284 l86 28 59 -19 c76 -23 215 -77 745 -285
415 -163 682 -266 728 -279 36 -12 28 10 -54 144 -129 211 -135 222 -131 235
3 6 31 21 63 34 111 42 222 139 274 239 54 103 63 239 30 432 -11 63 -20 124
-20 135 0 16 19 27 98 57 476 180 617 235 682 265 l75 34 -330 -5 c-181 -3
-392 -9 -467 -12 l-137 -7 -19 44 c-27 60 -53 81 -111 87 -60 5 -117 -12 -154
-47 l-28 -26 -25 32 c-34 44 -97 54 -154 24 -48 -25 -61 -26 -120 -5 -63 22
-248 22 -314 -1 -39 -14 -53 -14 -77 -5 -70 30 -184 184 -414 563 -133 219
-183 290 -207 295 -11 2 -43 -40 -105 -140z m181 -95 c130 -203 326 -533 326
-552 0 -5 -15 -12 -34 -15 -19 -4 -61 -25 -94 -46 -33 -22 -65 -40 -71 -40 -7
0 -25 9 -40 21 -36 27 -152 59 -211 59 -46 0 -57 -5 -169 -84 -41 -28 -41 -28
-67 -10 -53 38 -69 44 -101 38 -26 -5 -33 -3 -33 10 0 27 64 147 204 380 168
280 204 336 217 336 5 0 38 -44 73 -97z m-1095 -242 c50 -50 34 -271 -30 -417
-54 -121 -137 -211 -221 -236 -49 -15 -111 3 -134 38 -25 38 -14 154 24 239
66 150 126 196 147 111 7 -32 5 -49 -14 -100 -34 -88 -45 -155 -32 -188 44
-115 204 150 227 378 14 133 -17 170 -103 124 -55 -29 -206 -186 -264 -275
-104 -158 -132 -306 -79 -409 34 -67 67 -89 139 -94 73 -5 118 9 180 58 65 51
120 137 159 247 18 50 42 99 52 108 11 10 20 16 20 14 1 -25 47 -210 76 -304
31 -102 37 -135 38 -220 1 -78 -3 -107 -17 -132 -55 -101 -172 -165 -431 -233
l-109 -29 -33 34 c-49 52 -127 174 -121 189 3 8 69 35 145 60 251 84 363 150
406 239 23 47 26 64 24 131 l-3 77 -50 -77 c-62 -95 -130 -158 -215 -198 -121
-57 -270 -38 -344 44 -58 65 -70 142 -36 234 61 163 348 522 467 585 50 26
107 27 132 2z m1093 -457 c64 -33 115 -164 104 -267 -25 -245 -287 -391 -408
-227 -10 14 -23 51 -29 83 -10 47 -9 69 5 125 34 143 127 285 196 302 42 10
94 4 132 -16z m429 14 c54 -18 88 -47 125 -104 88 -138 79 -291 -25 -392 -91
-88 -235 -76 -324 28 -49 58 -63 115 -48 198 15 84 45 177 71 220 34 56 121
78 201 50z m959 2 c28 -15 57 -88 100 -255 93 -357 100 -520 30 -661 -50 -102
-136 -162 -284 -198 -72 -18 -241 -22 -304 -8 l-33 7 41 55 c39 53 70 130 70
177 0 28 5 28 110 2 211 -54 352 28 389 226 5 25 5 45 1 45 -5 0 -22 -23 -40
-51 -45 -74 -76 -99 -120 -99 -31 0 -44 7 -68 34 -33 38 -46 85 -92 336 -32
180 -36 193 -74 292 -25 66 -23 87 9 74 20 -7 56 -83 96 -201 37 -109 80 -183
118 -201 36 -18 76 0 96 43 24 50 15 116 -34 259 -51 145 -50 145 -11 124z
m-672 -72 c11 -29 32 -91 47 -138 50 -152 72 -180 146 -180 56 0 95 32 105 88
14 72 -34 179 -96 215 l-30 18 0 -55 c0 -61 -11 -74 -45 -56 -47 25 -81 120
-53 148 31 31 129 2 191 -57 75 -69 97 -146 98 -345 1 -146 -5 -170 -53 -215
-41 -39 -78 -47 -117 -27 -67 35 -117 136 -184 372 -26 88 -55 181 -65 205
-22 50 -15 79 18 79 13 0 24 -15 38 -52z m-1138 -2 c0 -47 -88 -155 -141 -171
-12 -4 -45 2 -80 16 -36 13 -64 18 -69 13 -11 -11 9 -104 34 -157 10 -20 32
-49 49 -63 31 -26 36 -27 118 -8 24 5 28 2 34 -26 11 -51 8 -149 -5 -165 -20
-24 -76 -29 -125 -11 -66 26 -102 72 -110 143 -14 123 -61 285 -96 334 -10 15
-19 34 -19 43 0 19 39 76 52 76 4 0 18 -21 30 -47 13 -26 28 -49 35 -51 6 -2
37 20 67 47 60 54 70 59 83 37 21 -35 93 -37 93 -2 0 8 6 16 13 19 21 7 37 -4
37 -27z m-1353 -1 c4 -2 -49 -159 -56 -167 -10 -10 -223 67 -386 140 -58 26
-59 27 -30 33 25 6 465 0 472 -6z m3922 -5 c-21 -12 -526 -200 -538 -200 -9 0
-25 59 -36 136 -11 70 -11 70 345 72 160 1 239 -2 229 -8z m-1437 -526 c23
-46 49 -81 91 -117 136 -120 137 -121 137 -169 0 -35 -7 -54 -32 -88 -79 -103
-79 -104 -73 -135 7 -40 51 -83 97 -96 22 -6 75 -7 128 -3 86 7 92 6 116 -17
42 -39 149 -219 131 -219 -16 0 -251 88 -652 245 -576 225 -664 256 -730 256
-56 1 -210 -56 -933 -342 -222 -88 -410 -159 -418 -157 -11 2 -2 26 37 93 171
299 270 432 394 530 51 41 115 99 143 131 l51 57 49 -45 c88 -83 163 -104 265
-74 56 16 117 58 117 79 1 35 16 39 81 17 50 -17 80 -21 139 -18 79 5 118 20
215 85 l52 34 92 -48 c88 -46 96 -48 174 -48 91 1 149 20 234 81 27 19 51 34
55 34 4 0 22 -30 40 -66z"/>
<path d="M2552 2848 c-18 -18 -14 -60 8 -88 25 -32 25 -52 0 -75 -27 -24 -79
-13 -115 25 -16 17 -32 30 -37 30 -15 0 -8 -85 11 -125 22 -50 84 -105 117
-105 16 0 43 17 75 47 58 55 79 89 79 133 0 50 -49 132 -93 157 -28 16 -30 16
-45 1z"/>
<path d="M2997 2873 c-15 -14 -5 -35 35 -79 l43 -46 -24 -19 c-13 -10 -32 -19
-43 -19 -33 0 -75 31 -92 68 -9 19 -19 32 -23 29 -13 -13 -4 -139 12 -163 20
-30 80 -69 123 -79 37 -8 98 18 145 63 41 39 36 71 -22 140 -79 94 -130 130
-154 105z"/>
</g>
</svg>
